<svg xmlns="http://www.w3.org/2000/svg" width="16" height="16" viewBox="0 0 16 16">
  <defs>
    <style>
      .cls-1 {
        fill: none;
      }

      .cls-2 {
        fill: #14e1fa;
      }
    </style>
  </defs>
  <g id="无线变形传感器" transform="translate(-15 -159)">
    <rect id="矩形_65" data-name="矩形 65" class="cls-1" width="16" height="16" transform="translate(15 159)"/>
    <path id="变形" class="cls-2" d="M46.631,16a1.969,1.969,0,0,1-1.873-1.323H37.833A1.988,1.988,0,0,1,35.968,16a1.964,1.964,0,0,1-.628-3.827L35.786,5.3a1.965,1.965,0,1,1,2.509-2.523L45.157,1.35A1.989,1.989,0,0,1,47.032,0a1.965,1.965,0,0,1,.631,3.827l-.425,8.32A2.08,2.08,0,0,1,48.6,14.033v.009A1.967,1.967,0,0,1,46.631,16Zm-8.8-2.633h6.883A1.919,1.919,0,0,1,46,12.177l.425-8.361a2.046,2.046,0,0,1-1.21-1.191L38.309,4.062A2.05,2.05,0,0,1,37.06,5.317l-.446,6.83A2.054,2.054,0,0,1,37.835,13.367Z" transform="translate(-19 159)"/>
  </g>
</svg>
