<?xml version="1.0" standalone="no"?><!DOCTYPE svg PUBLIC "-//W3C//DTD SVG 1.1//EN" "http://www.w3.org/Graphics/SVG/1.1/DTD/svg11.dtd"><svg t="1618383267914" class="icon" viewBox="0 0 1024 1024" version="1.1" xmlns="http://www.w3.org/2000/svg" p-id="3820" xmlns:xlink="http://www.w3.org/1999/xlink" width="48" height="48"><defs><style type="text/css"></style></defs><path d="M752.576 213.312L741.952 384H574.4v128h159.552l-27.648 444.032V960a64 64 0 0 0 61.888 64h-704a65.984 65.984 0 0 1-64-67.2V164.864c0-36.416 28.544-47.808 64-25.6l191.488 79.424v-53.888c0-36.416 28.544-47.808 64-25.6l191.488 79.424v-53.888c0-36.416 28.544-47.808 64-25.6l177.408 73.792zM510.592 384H319.104v128h191.488zM255.296 384H63.808v128h191.488V384z m634.56-384h12.288a64 64 0 0 1 64 59.904l57.6 896a64 64 0 0 1-64 68.096h-128a64 64 0 0 1-64-68.096l57.6-896a64 64 0 0 1 64-59.904z" fill="#14E1FA" p-id="3821"></path></svg>