<?xml version="1.0" standalone="no"?><!DOCTYPE svg PUBLIC "-//W3C//DTD SVG 1.1//EN" "http://www.w3.org/Graphics/SVG/1.1/DTD/svg11.dtd"><svg t="1618385403444" class="icon" viewBox="0 0 1024 1024" version="1.1" xmlns="http://www.w3.org/2000/svg" p-id="4947" xmlns:xlink="http://www.w3.org/1999/xlink" width="48" height="48"><defs><style type="text/css"></style></defs>><path d="M334.2848 754.56V417.216h-49.6a153.152 153.152 0 0 1-92.736 53.952v39.36h8.32a107.648 107.648 0 0 1 37.632 4.032 17.536 17.536 0 0 1 10.304 11.968 313.6 313.6 0 0 1 1.856 47.104v180.864h84.16z m503.68 0v-57.6h-92.224a1260.8 1260.8 0 0 0 85.312-137.088 150.656 150.656 0 0 0 14.464-61.248 84.032 84.032 0 0 0-25.6-63.04 105.152 105.152 0 0 0-75.968-24.896 107.904 107.904 0 0 0-43.968 8.128 72.064 72.064 0 0 0-29.824 24 78.4 78.4 0 0 0-14.4 32 267.392 267.392 0 0 0-2.88 44.8v12.288h75.456v-32a62.656 62.656 0 0 1 4.672-29.76 15.68 15.68 0 0 1 14.272-7.488 16.128 16.128 0 0 1 14.272 6.784 35.904 35.904 0 0 1 4.672 20.48 125.696 125.696 0 0 1-15.552 49.92q-15.488 32-97.792 166.4v48.128z" fill="#14E1FA" p-id="4949"></path><path d="M213.3248 64v67.2a21.888 21.888 0 0 0 21.312 22.4H320.0128a21.888 21.888 0 0 0 21.312-22.4V64h341.312v67.2a22.144 22.144 0 0 0 17.472 22.016L704.0128 153.6h85.312a21.888 21.888 0 0 0 21.312-22.4V64h170.688a43.776 43.776 0 0 1 42.688 44.8v806.4a43.776 43.776 0 0 1-42.688 44.8H42.7008A43.776 43.776 0 0 1 0.0128 915.2V108.8A43.776 43.776 0 0 1 42.7008 64zM448.0128 288H106.7008a21.888 21.888 0 0 0-21.312 22.4v537.6a21.888 21.888 0 0 0 21.312 22.4H448.0128a21.888 21.888 0 0 0 21.312-22.4v-537.6A21.888 21.888 0 0 0 448.0128 288z m469.312 0H576.0128a21.888 21.888 0 0 0-21.312 22.4v537.6A21.888 21.888 0 0 0 576.0128 870.4h341.312a21.888 21.888 0 0 0 21.312-22.4v-537.6a21.888 21.888 0 0 0-21.312-22.4z" fill="#14E1FA" p-id="4950"></path></svg>