<?xml version="1.0" standalone="no"?><!DOCTYPE svg PUBLIC "-//W3C//DTD SVG 1.1//EN" "http://www.w3.org/Graphics/SVG/1.1/DTD/svg11.dtd"><svg t="1618391148025" class="icon" viewBox="0 0 1024 1024" version="1.1" xmlns="http://www.w3.org/2000/svg" p-id="4130" xmlns:xlink="http://www.w3.org/1999/xlink" width="48" height="48"><defs><style type="text/css"></style></defs></path><path d="M560.832 536.384a73.152 73.152 0 0 1 73.088 73.088v341.248a73.088 73.088 0 0 1-73.088 73.088H463.296a73.088 73.088 0 0 1-73.152-73.088V609.536a73.152 73.152 0 0 1 73.088-73.088h97.6z m-390.4 146.24a73.152 73.152 0 0 1 73.088 73.152v194.944a73.088 73.088 0 0 1-73.088 73.088H73.216a73.088 73.088 0 0 1-73.152-73.088V755.84a73.152 73.152 0 0 1 73.088-73.088h97.536z m780.352-292.544a73.152 73.152 0 0 1 73.088 73.088v485.632a73.088 73.088 0 0 1-73.088 73.152h-97.344a73.088 73.088 0 0 1-73.088-73.088V463.232a73.088 73.088 0 0 1 73.088-73.088h97.344zM97.6 292.608A97.536 97.536 0 1 1 0.064 390.144a97.536 97.536 0 0 1 97.536-97.536z m243.904-43.584a144.96 144.96 0 0 0 20.864 70.4l-120.704 45.312a145.6 145.6 0 0 0-30.464-66.752l130.24-48.832z m146.24-102.72A97.536 97.536 0 1 1 390.208 243.84a97.536 97.536 0 0 1 97.536-97.536z m243.84-43.584a145.6 145.6 0 0 0 20.864 70.4l-120.704 45.312a145.6 145.6 0 0 0-30.464-66.752l130.24-48.832zM877.824 0a97.536 97.536 0 1 1-97.536 97.536A97.536 97.536 0 0 1 877.824 0z" fill="#14E1FA" p-id="4132"></path></svg>