<?xml version="1.0" standalone="no"?><!DOCTYPE svg PUBLIC "-//W3C//DTD SVG 1.1//EN" "http://www.w3.org/Graphics/SVG/1.1/DTD/svg11.dtd"><svg t="1614671338939" class="icon" viewBox="0 0 1024 1024" version="1.1" xmlns="http://www.w3.org/2000/svg" p-id="5722" xmlns:xlink="http://www.w3.org/1999/xlink" width="128" height="128"><defs><style type="text/css"></style></defs><path d="M76.417836 338.125552A47.835171 47.835171 0 0 1 34.156799 312.075007a50.138767 50.138767 0 0 1 2.332035-50.366283 564.039803 564.039803 0 0 1 949.877952-3.867767 50.110328 50.110328 0 0 1 4.351238 49.712176 47.465458 47.465458 0 0 1-83.839527 5.289739 469.251084 469.251084 0 0 0-790.474781 3.270538 47.692974 47.692974 0 0 1-40.071199 21.898384zM510.489308 1023.857803a57.589906 57.589906 0 0 1-50.053449-29.832993l-1.393533-2.531112-218.187535-528.149205a49.569978 49.569978 0 0 1 25.595514-64.386937 47.579216 47.579216 0 0 1 62.879645 26.107424l181.415313 439.332773 183.007923-439.47497a47.579216 47.579216 0 0 1 62.964964-25.908348 49.569978 49.569978 0 0 1 25.311119 64.472255l-220.064539 528.291402-1.393533 2.502673a57.589906 57.589906 0 0 1-50.053449 29.719235z" fill="#14E1FA" p-id="5723"></path></svg>