<?xml version="1.0" standalone="no"?><!DOCTYPE svg PUBLIC "-//W3C//DTD SVG 1.1//EN" "http://www.w3.org/Graphics/SVG/1.1/DTD/svg11.dtd"><svg t="1612756105225" class="icon" viewBox="0 0 1024 1024" version="1.1" xmlns="http://www.w3.org/2000/svg" p-id="11990" xmlns:xlink="http://www.w3.org/1999/xlink" width="128" height="128"><defs><style type="text/css"></style></defs><path d="M1015.717245 257.059279a617.170543 617.170543 0 0 0-1005.078033 3.788626 51.709621 51.709621 0 0 0-5.188028 54.440162 56.215014 56.215014 0 0 0 97.17313 4.334734 504.296802 504.296802 0 0 1 821.449147-3.174254 56.488068 56.488068 0 0 0 75.601855 12.901807 52.050939 52.050939 0 0 0 15.768875-72.461734z" fill="#14E1FA" p-id="11991"></path><path d="M574.803127 289.040741l-1.228743-2.798804-1.604193-2.696409a70.959936 70.959936 0 0 0-120.109675 0l-1.53593 2.696409-295.478674 663.7604a52.323993 52.323993 0 0 0 30.343137 68.502449 57.204835 57.204835 0 0 0 72.837183-27.134752l92.770133-208.442678h324.183487l93.69169 208.647469a56.283278 56.283278 0 0 0 51.197645 32.425175 55.532379 55.532379 0 0 0 21.67367-4.334734 54.610821 54.610821 0 0 0 30.070084-29.080262 50.685668 50.685668 0 0 0-0.477845-40.753326z m-176.563611 387.463777l113.897694-255.988224 114.921647 255.988224z" fill="#14E1FA" p-id="11992"></path></svg>