<?xml version="1.0" standalone="no"?><!DOCTYPE svg PUBLIC "-//W3C//DTD SVG 1.1//EN" "http://www.w3.org/Graphics/SVG/1.1/DTD/svg11.dtd"><svg t="1613985306021" class="icon" viewBox="0 0 1024 1024" version="1.1" xmlns="http://www.w3.org/2000/svg" p-id="5722" xmlns:xlink="http://www.w3.org/1999/xlink" width="128" height="128"><defs><style type="text/css"></style></defs><path d="M269.397333 331.264l43.605334 60.629333a321.92 321.92 0 0 0-105.130667 127.530667A320.256 320.256 0 0 0 512 706.304c9.002667 0 17.792-0.341333 26.368-0.853333l50.005333 69.589333a475.008 475.008 0 0 1-76.416 6.016 400.810667 400.810667 0 0 1-381.994666-249.856 36.053333 36.053333 0 0 1 0-23.722667 404.992 404.992 0 0 1 139.434666-176.213333z m242.816-73.6a401.066667 401.066667 0 0 1 381.994667 249.898667 36.053333 36.053333 0 0 1 0 23.637333 405.674667 405.674667 0 0 1-148.309333 182.741333l-43.648-60.757333a321.450667 321.450667 0 0 0 114.304-133.802667 320.384 320.384 0 0 0-304.384-186.965333q-19.712 0-39.338667 1.834667l-49.322667-68.266667A468.394667 468.394667 0 0 1 512 257.664z" p-id="5723"></path><path d="M262.656 180.224a37.504 37.504 0 0 1 58.112 9.941333l430.933333 597.333334a35.242667 35.242667 0 0 1-10.24 56.405333 37.504 37.504 0 0 1-58.112-9.941333l-430.933333-597.333334a35.242667 35.242667 0 0 1 10.282667-56.405333z" p-id="5724"></path></svg>