<?xml version="1.0" standalone="no"?><!DOCTYPE svg PUBLIC "-//W3C//DTD SVG 1.1//EN" "http://www.w3.org/Graphics/SVG/1.1/DTD/svg11.dtd"><svg t="1613985089888" class="icon" viewBox="0 0 1024 1024" version="1.1" xmlns="http://www.w3.org/2000/svg" p-id="5592" xmlns:xlink="http://www.w3.org/1999/xlink" width="128" height="128"><defs><style type="text/css"></style></defs><path d="M512 781.184c-8.917333 0-17.792-0.213333-26.709333-0.682667a402.986667 402.986667 0 0 1-207.018667-66.56c-4.266667-2.730667-8.021333-5.504-11.904-8.277333l-0.341333-0.256-1.152-0.853333-1.493334-1.109334a403.925333 403.925333 0 0 1-133.290666-172.074666c0-0.512-0.341333-1.024-0.512-1.536l-0.213334-0.682667a3.584 3.584 0 0 0 0-0.597333v-0.512a1.706667 1.706667 0 0 1 0-0.384 1.109333 1.109333 0 0 1 0-0.341334v-0.597333a36.181333 36.181333 0 0 1 1.322667-18.645333 400.042667 400.042667 0 0 1 350.378667-248.917334h1.834666a497.493333 497.493333 0 0 1 59.733334 0h1.834666a400 400 0 0 1 350.421334 248.917334 36.181333 36.181333 0 0 1 1.322666 18.645333V529.152a4.650667 4.650667 0 0 1 0 0.682667c0 0.512-0.298667 1.024-0.512 1.536a404.394667 404.394667 0 0 1-135.04 173.354666l-0.938666 0.682667-0.469334 0.298667c-3.84 2.816-7.808 5.546667-11.818666 8.277333a403.626667 403.626667 0 0 1-207.061334 66.56q-12.8 0.682667-25.941333 0.682667z m0-74.709333c9.002667 0 17.749333-0.341333 26.325333-0.896a330.325333 330.325333 0 0 0 163.669334-52.437334 321.365333 321.365333 0 0 0 114.218666-133.504v-0.213333a321.749333 321.749333 0 0 0-104.149333-126.933333A334.976 334.976 0 0 0 512 332.458667a334.805333 334.805333 0 0 0-201.514667 61.098666 322.048 322.048 0 0 0-102.826666 125.866667 321.024 321.024 0 0 0 114.304 133.802667 330.325333 330.325333 0 0 0 163.584 52.437333c8.618667 0.469333 17.408 0.810667 26.453333 0.810667zM426.666667 512a85.333333 85.333333 0 1 1 85.333333 85.333333 85.333333 85.333333 0 0 1-85.333333-85.333333z" p-id="5593"></path></svg>