<?xml version="1.0" standalone="no"?><!DOCTYPE svg PUBLIC "-//W3C//DTD SVG 1.1//EN" "http://www.w3.org/Graphics/SVG/1.1/DTD/svg11.dtd"><svg t="1613986010365" class="icon" viewBox="0 0 1024 1024" version="1.1" xmlns="http://www.w3.org/2000/svg" p-id="5987" xmlns:xlink="http://www.w3.org/1999/xlink" width="128" height="128"><defs><style type="text/css"></style></defs><path d="M512 512m-512 0a512 512 0 1 0 1024 0 512 512 0 1 0-1024 0Z" fill="#00051E" p-id="5988"></path><path d="M305.472 288a48.896 48.896 0 0 0-49.312 49.28v313.056a49.312 49.312 0 0 0 49.408 51.2h84.992v70.88a27.04 27.04 0 0 0 27.68 27.584 35.2 35.2 0 0 0 19.744-7.872l90.912-90.56h189.728a48.896 48.896 0 0 0 49.408-49.216V337.28a46.144 46.144 0 0 0-47.424-49.248h-415.104z m268.8 291.456h-213.44a25.6 25.6 0 1 1 0-51.2h213.408a25.6 25.6 0 1 1 0 51.2z m90.912-118.144h-304.384a24.832 24.832 0 0 1-25.6-25.6 26.048 26.048 0 0 1 25.6-25.6h304.352a25.984 25.984 0 0 1 18.368 43.936 24.928 24.928 0 0 1-18.368 7.264z" fill="#14E1FA" p-id="5989"></path></svg>