<?xml version="1.0" standalone="no"?><!DOCTYPE svg PUBLIC "-//W3C//DTD SVG 1.1//EN" "http://www.w3.org/Graphics/SVG/1.1/DTD/svg11.dtd"><svg t="1589880449383" class="icon" viewBox="0 0 1024 1024" version="1.1" xmlns="http://www.w3.org/2000/svg" p-id="1838" xmlns:xlink="http://www.w3.org/1999/xlink" width="200" height="200"><defs><style type="text/css"></style></defs><path d="M388.654545 390.981818c151.808 0 272.290909 112.849455 272.29091 249.111273s-120.482909 249.111273-272.29091 249.111273c-31.325091 0-66.932364-4.794182-93.719272-14.103273h-22.481455c-31.045818 4.794182-71.214545 28.206545-89.134545 14.103273-17.687273-14.103273 4.538182-79.825455-8.843637-98.746182C138.565818 752.942545 116.363636 701.323636 116.363636 640.116364 116.363636 503.808 236.846545 390.981818 388.654545 390.981818z m16.523637 167.563637h-31.185455l-69.12 179.456h29.160728l16.826181-46.24291h77.172364l16.849455 46.24291h29.393454L405.178182 558.545455z m-15.104 29.416727l29.672727 81.175273h-60.578909l29.905455-81.175273h1.000727z" fill="#FBBA1A" p-id="1839"></path><path d="M640 139.636364c151.808 0 272.290909 112.849455 272.290909 249.111272 0 61.207273-22.225455 112.872727-58.088727 150.365091-13.405091 18.920727 8.843636 84.642909-8.843637 98.746182-17.92 14.103273-58.112-9.309091-89.157818-14.103273h-22.481454c-26.763636 9.309091-62.394182 14.103273-93.719273 14.103273-151.808 0-272.290909-112.849455-272.290909-249.111273S488.192 139.636364 640 139.636364z m9.122909 125.672727h-24.622545v43.473454H535.272727v121.413819h23.877818v-14.336h65.349819v84.200727h24.622545V415.883636h65.629091v14.336h23.854545v-121.413818h-89.483636V265.309091z m-24.622545 66.862545v60.322909h-65.349819v-60.322909h65.349819z m90.228363 0v60.322909h-65.605818v-60.322909h65.629091z" fill="#5C84FF" p-id="1840"></path><path d="M150.109091 335.872l8.098909 33.326545 24.808727 23.691637-33.326545 8.098909-23.691637 24.808727-8.098909-33.326545L93.090909 368.779636l33.326546-8.098909 23.668363-24.808727z m91.624727-201.076364l44.404364 25.995637 51.386182-2.094546-25.972364 44.404364 2.094545 51.409454-44.404363-25.995636-51.409455 2.094546 25.972364-44.404364-2.094546-51.386182zM925.765818 93.090909l-8.331636 50.757818 20.363636 47.243637-50.757818-8.331637-47.243636 20.363637 8.331636-50.757819-20.363636-47.243636 50.757818 8.331636L925.765818 93.090909z" fill="#FCC736" p-id="1841"></path></svg>