<?xml version="1.0" standalone="no"?><!DOCTYPE svg PUBLIC "-//W3C//DTD SVG 1.1//EN" "http://www.w3.org/Graphics/SVG/1.1/DTD/svg11.dtd"><svg t="1618391621696" class="icon" viewBox="0 0 1024 1024" version="1.1" xmlns="http://www.w3.org/2000/svg" p-id="4271" xmlns:xlink="http://www.w3.org/1999/xlink" width="48" height="48"><defs><style type="text/css"></style></defs><path d="M432.81748 1023.872024h-377.530393a55.093842 55.093842 0 0 1-55.093842-55.093842v-377.530393a54.45396 54.45396 0 0 1 54.709912-54.709913h377.530393a55.093842 55.093842 0 0 1 55.093842 55.093842v377.530393a54.581936 54.581936 0 0 1-54.709912 54.709913z" fill="#14E1FA" p-id="4273"></path><path d="M54.967146 588.880225a2.623516 2.623516 0 0 0-1.727682 0.70387 2.815481 2.815481 0 0 0-0.70387 1.79167v377.530393a2.815481 2.815481 0 0 0 0.70387 1.79167 2.623516 2.623516 0 0 0 1.727682 0.70387h365.628587a2.623516 2.623516 0 0 0 1.727681-0.70387 2.815481 2.815481 0 0 0 0.703871-1.79167v-377.530393a2.815481 2.815481 0 0 0-0.703871-1.79167 2.623516 2.623516 0 0 0-1.727681-0.70387z m891.803573 435.119775H581.334097a54.198007 54.198007 0 0 1-53.302173-55.093842v-377.530393a54.198007 54.198007 0 0 1 53.302173-55.093842h365.436622a54.198007 54.198007 0 0 1 53.302173 55.093842v377.530393a54.134019 54.134019 0 0 1-53.238184 54.965866z" fill="#14E1FA" p-id="4274"></path><path d="M579.734392 597.390656a2.687504 2.687504 0 0 0-1.727682 0.70387 2.751493 2.751493 0 0 0-0.70387 1.79167v369.339903a2.751493 2.751493 0 0 0 0.70387 1.79167 2.687504 2.687504 0 0 0 1.727682 0.70387h365.500611a2.431552 2.431552 0 0 0 2.431551-2.49554V599.886196a2.431552 2.431552 0 0 0-2.431551-2.49554zM418.740075 494.241674H53.303452A53.558125 53.558125 0 0 1 0.00128 440.363608V71.407634A53.558125 53.558125 0 0 1 53.303452 17.529568h365.436623a53.558125 53.558125 0 0 1 53.302172 53.878066v369.339903a53.942054 53.942054 0 0 1-53.302172 53.494137z" fill="#14E1FA" p-id="4275"></path><path d="M54.967146 69.743941a2.431552 2.431552 0 0 0-2.431552 2.559528v377.530393a2.815481 2.815481 0 0 0 0.70387 1.79167 2.623516 2.623516 0 0 0 1.727682 0.70387h365.628587a2.623516 2.623516 0 0 0 1.727681-0.70387 2.815481 2.815481 0 0 0 0.703871-1.79167v-377.530393a2.815481 2.815481 0 0 0-0.703871-1.79167 2.623516 2.623516 0 0 0-1.727681-0.70387H54.903157z m715.644053 453.164448a52.534314 52.534314 0 0 1-37.561075-15.933063L533.023004 300.357422a56.181642 56.181642 0 0 1 0-77.553701L733.050124 16.185816a51.95842 51.95842 0 0 1 75.122149 0l200.02712 206.617905a56.181642 56.181642 0 0 1 0 77.553701L808.172273 506.975326a52.534314 52.534314 0 0 1-37.561074 15.933063z" fill="#14E1FA" p-id="4276"></path><path d="M760.565051 469.606216a2.431552 2.431552 0 0 0 3.647328 0l206.617904-206.617904a2.431552 2.431552 0 0 0 0-3.647328L764.212379 52.723079a2.431552 2.431552 0 0 0-3.647328 0L553.947146 259.340984a2.431552 2.431552 0 0 0 0 3.647328z" fill="#14E1FA" p-id="4277"></path></svg>