<?xml version="1.0" standalone="no"?><!DOCTYPE svg PUBLIC "-//W3C//DTD SVG 1.1//EN" "http://www.w3.org/Graphics/SVG/1.1/DTD/svg11.dtd"><svg t="1618384995479" class="icon" viewBox="0 0 1024 1024" version="1.1" xmlns="http://www.w3.org/2000/svg" p-id="4523" xmlns:xlink="http://www.w3.org/1999/xlink" width="48" height="48"><defs><style type="text/css"></style></defs><path d="M512 0a512 512 0 1 0 512 512 512 512 0 0 0-512-512z m0 698.176a92.48 92.48 0 0 1-92.224-92.224 88.512 88.512 0 0 1 5.056-30.464l-133.696-115.2a30.592 30.592 0 1 1 39.744-46.528L463.744 528a91.712 91.712 0 0 1 139.648 78.72A90.496 90.496 0 0 1 512 698.176z m340.224-153.152a31.232 31.232 0 0 1-31.296-31.296 308.928 308.928 0 1 0-617.792 0.832 31.36 31.36 0 1 1-62.656 0 370.688 370.688 0 1 1 741.312 0 28.224 28.224 0 0 1-29.568 30.464z" fill="#14E1FA" p-id="4525"></path></svg>