<?xml version="1.0" standalone="no"?><!DOCTYPE svg PUBLIC "-//W3C//DTD SVG 1.1//EN" "http://www.w3.org/Graphics/SVG/1.1/DTD/svg11.dtd"><svg t="1618384161233" class="icon" viewBox="0 0 1024 1024" version="1.1" xmlns="http://www.w3.org/2000/svg" p-id="4100" xmlns:xlink="http://www.w3.org/1999/xlink" width="48" height="48"><defs><style type="text/css"></style></defs><path d="M408.127745 882.239449h207.35987a21.759986 21.759986 0 0 1 24.575985 24.575984v13.823992a21.759986 21.759986 0 0 1-24.575985 24.575984h-207.35987a21.759986 21.759986 0 0 1-24.575985-24.575984v-13.823992a21.759986 21.759986 0 0 1 24.575985-24.575984z" fill="#14E1FA" p-id="4102"></path><path d="M580.287637 974.975391H443.519723a24.511985 24.511985 0 0 0 0 48.895969h136.767914a24.575985 24.575985 0 1 0 0-48.895969z m251.839843-577.27964c0-22.207986-49.215969-41.855974-125.183922-54.271966V265.791834c75.647953-12.415992 125.183922-31.99998 125.183922-54.271966s-49.215969-41.663974-125.183922-54.271966V59.007963C706.623558 26.367984 619.391613 0 512.06368 0S317.183802 26.367984 317.183802 59.007963v98.175939c-75.967953 12.799992-125.183922 31.99998-125.183922 54.271966s49.215969 41.855974 125.183922 54.271966v77.695951C241.215849 355.839778 191.99988 375.423765 191.99988 397.695751s49.215969 41.663974 125.183922 54.271967v77.695951C241.215849 542.079661 191.99988 561.663649 191.99988 583.807635s49.215969 41.855974 125.183922 54.975966v66.047958c0 29.055982 70.399956 53.311967 161.919899 57.983964v35.455978h-101.759937a24.383985 24.383985 0 0 0-24.447985 24.511985v13.759991a24.383985 24.383985 0 0 0 24.447985 23.871985h269.567832a24.575985 24.575985 0 0 0 24.575984-24.511984v-13.759992a24.575985 24.575985 0 0 0-24.575984-24.511985h-102.399936v-35.455977c91.839943-4.735997 161.919899-28.927982 161.919898-57.983964V638.783601c75.967953-12.415992 125.183922-31.99998 125.183922-54.271966s-49.215969-41.663974-125.183922-54.143966V452.031717c76.159952-12.607992 125.695921-31.74398 125.695922-54.271966z" fill="#14E1FA" p-id="4103"></path></svg>