<?xml version="1.0" standalone="no"?><!DOCTYPE svg PUBLIC "-//W3C//DTD SVG 1.1//EN" "http://www.w3.org/Graphics/SVG/1.1/DTD/svg11.dtd"><svg t="1618380978806" class="icon" viewBox="0 0 1024 1024" version="1.1" xmlns="http://www.w3.org/2000/svg" p-id="3680" xmlns:xlink="http://www.w3.org/1999/xlink" width="48" height="48"><defs><style type="text/css"></style></defs><path d="M668.174609 869.183585a20.979204 20.979204 0 0 0-19.525825-22.11663H374.908087a20.979204 20.979204 0 0 0-19.525826 22.11663v88.466523H159.871246v66.349892h703.814379v-66.349892h-195.447825v-88.466523zM951.709815 63.190373H72.099818A66.097131 66.097131 0 0 0 6.381829 129.856217v619.265659a66.160321 66.160321 0 0 0 65.717989 66.286702h879.609997A66.097131 66.097131 0 0 0 1017.427803 748.616353v-619.265659A66.097131 66.097131 0 0 0 951.709815 63.063993zM280.817621 689.470164a16.239926 16.239926 0 0 1-16.176736 16.176735H193.425334a16.239926 16.239926 0 0 1-16.176735-16.176735V570.861833a16.239926 16.239926 0 0 1 16.176735-16.176736h71.215551a16.239926 16.239926 0 0 1 16.176736 16.176736v118.608331z m181.1668 0a16.239926 16.239926 0 0 1-16.176735 16.176735H374.592135a16.239926 16.239926 0 0 1-16.176736-16.176735V442.206233a16.239926 16.239926 0 0 1 16.176736-16.176736h71.215551a16.239926 16.239926 0 0 1 16.176735 16.176736z m189.57112 0a16.239926 16.239926 0 0 1-16.176735 16.176735H563.847303a16.239926 16.239926 0 0 1-16.176736-16.176735V246.252885a16.239926 16.239926 0 0 1 16.176736-16.176736h71.215551a16.239926 16.239926 0 0 1 16.176735 16.176736z m195.321444 0a16.239926 16.239926 0 0 1-16.176735 16.176735h-71.531503a16.239926 16.239926 0 0 1-16.176736-16.176735V345.588152a16.239926 16.239926 0 0 1 16.176736-16.176736h71.215551a16.239926 16.239926 0 0 1 16.176735 16.176736z" fill="#14E1FA" p-id="3681"></path></svg>