<?xml version="1.0" standalone="no"?><!DOCTYPE svg PUBLIC "-//W3C//DTD SVG 1.1//EN" "http://www.w3.org/Graphics/SVG/1.1/DTD/svg11.dtd"><svg t="1618392011950" class="icon" viewBox="0 0 1024 1024" version="1.1" xmlns="http://www.w3.org/2000/svg" p-id="4557" xmlns:xlink="http://www.w3.org/1999/xlink" width="48" height="48"><defs><style type="text/css"></style></defs><path d="M694.10944 445.952a54.4 54.4 0 0 1-54.4-54.4 129.216 129.216 0 1 0-258.368 0 54.4 54.4 0 0 1-108.8 0 238.016 238.016 0 1 1 476.032 0 54.4 54.4 0 0 1-54.464 54.4z m0 0" fill="#14E1FA" p-id="4559"></path><path d="M832.86144 459.008a52.416 52.416 0 0 1-50.112-54.4 273.344 273.344 0 1 0-544.768 0 50.24 50.24 0 1 1-100.224 0 373.824 373.824 0 1 1 745.152 0 52.352 52.352 0 0 1-50.048 54.4z m0 0" fill="#14E1FA" p-id="4560"></path><path d="M960.02944 583.68H563.22944V396.672a51.2 51.2 0 1 0-102.4 0V583.68H64.02944a66.112 66.112 0 0 0-64 68.032v304.32a66.112 66.112 0 0 0 64 68.032h896a66.112 66.112 0 0 0 64-68.032v-304.32a70.4 70.4 0 0 0-18.752-48.064 62.208 62.208 0 0 0-45.248-19.904zM157.91744 858.24a51.2 51.2 0 0 1-47.296-33.6 56.896 56.896 0 0 1 11.072-59.264 49.024 49.024 0 0 1 55.808-11.776 54.528 54.528 0 0 1 31.616 50.24 52.864 52.864 0 0 1-51.2 54.4z m155.136 0a51.2 51.2 0 0 1-47.296-33.6 56.896 56.896 0 0 1 11.072-59.264 49.024 49.024 0 0 1 55.808-11.776 54.528 54.528 0 0 1 31.616 50.24 52.864 52.864 0 0 1-51.2 54.4z m0 0" fill="#14E1FA" p-id="4561"></path></svg>