<?xml version="1.0" standalone="no"?><!DOCTYPE svg PUBLIC "-//W3C//DTD SVG 1.1//EN" "http://www.w3.org/Graphics/SVG/1.1/DTD/svg11.dtd"><svg t="1618392089311" class="icon" viewBox="0 0 1024 1024" version="1.1" xmlns="http://www.w3.org/2000/svg" p-id="4842" xmlns:xlink="http://www.w3.org/1999/xlink" width="48" height="48"><defs><style type="text/css"></style></defs><path d="M999.617524 424.869446l-91.51428-38.07762h-0.831948a412.00625 412.00625 0 0 0-27.134305-65.275921 22.846572 22.846572 0 0 0 0.95994-2.111868l37.245673-90.298356a39.421536 39.421536 0 0 0-8.575464-43.005312l-71.547529-71.611525a39.485532 39.485532 0 0 0-43.005312-8.575464l-91.322292 37.693645-1.151928 0.575964a413.28617 413.28617 0 0 0-65.275921-27.134305l-0.63996-1.535904-37.75764-90.810324a39.485532 39.485532 0 0 0-36.47772-24.382476H461.411162a39.549528 39.549528 0 0 0-36.541716 24.382476l-38.013624 91.51428-0.31998 0.831948a408.294482 408.294482 0 0 0-65.211925 27.134305l-2.175864-0.95994-90.362352-37.245673a39.549528 39.549528 0 0 0-43.069308 8.63946L114.23286 185.716393a39.421536 39.421536 0 0 0-8.575464 43.005312l37.693645 91.386288a11.903256 11.903256 0 0 1 0.511968 1.151928 414.438098 414.438098 0 0 0-27.134305 65.275921l-1.535904 0.575964-90.746328 37.75764a39.485532 39.485532 0 0 0-24.382476 36.47772v101.241672a39.485532 39.485532 0 0 0 24.382476 36.47772l91.51428 38.013624 0.831948 0.31998a413.28617 413.28617 0 0 0 27.134305 65.211925l-1.023936 2.23986-37.245673 90.298356a39.421536 39.421536 0 0 0 8.575464 43.005312l71.547529 71.547529a39.549528 39.549528 0 0 0 43.069308 8.575464l91.322292-37.693645 1.151928-0.575964a413.670146 413.670146 0 0 0 65.275921 27.134305l0.575964 1.535904 37.75764 90.810324a39.549528 39.549528 0 0 0 36.541716 24.382476h101.177676a39.485532 39.485532 0 0 0 36.47772-24.382476l38.07762-91.51428 0.31998-0.831948a411.36629 411.36629 0 0 0 65.275921-27.134305l2.175864 1.023936 90.298356 37.245673a39.549528 39.549528 0 0 0 43.005312-8.575464l71.547529-71.547529a39.421536 39.421536 0 0 0 8.575464-43.005312l-37.693645-91.322292-0.575964-1.151928a414.054122 414.054122 0 0 0 27.134305-65.275921l1.535904-0.63996 90.746328-37.75764A39.485532 39.485532 0 0 0 1023.936004 562.524842V461.347166a39.485532 39.485532 0 0 0-24.31848-36.47772zM511.968002 659.158803A147.190801 147.190801 0 1 1 659.158803 511.968002a147.190801 147.190801 0 0 1-147.126805 147.254797z" fill="#14E1FA" p-id="4844"></path></svg>