<svg xmlns="http://www.w3.org/2000/svg" width="16" height="16" viewBox="0 0 16 16">
  <defs>
    <style>
      .cls-1 {
        fill: none;
      }

      .cls-2 {
        fill: #14e1fa;
      }
    </style>
  </defs>
  <g id="无线伸缩节传感器" transform="translate(-15 -159)">
    <rect id="矩形_65" data-name="矩形 65" class="cls-1" width="16" height="16" transform="translate(15 159)"/>
    <g id="GIS-图例_图层icon_伸缩节" data-name="GIS-图例、图层icon_伸缩节" transform="translate(-222.51 -66.28)">
      <path id="路径_9384" data-name="路径 9384" class="cls-2" d="M250.829,402.43V400.07a.322.322,0,0,0-.309-.323h-3.857a.322.322,0,0,1-.309-.323v-3.543a.322.322,0,0,1,.309-.323h1.9a.322.322,0,0,0,.309-.323v-1.7a.321.321,0,0,0-.313-.318h-6.108a.322.322,0,0,0-.309.323v1.7a.322.322,0,0,0,.309.323h1.9a.322.322,0,0,1,.309.323v3.543a.321.321,0,0,1-.309.317H240.5a.322.322,0,0,0-.309.323v2.359a.322.322,0,0,1-.308.32h-1.062a.322.322,0,0,0-.309.329V404.4a.322.322,0,0,0,.309.32H252.2a.322.322,0,0,0,.309-.323v-1.321a.322.322,0,0,0-.309-.323h-1.062a.322.322,0,0,1-.309-.325Z" transform="translate(0 -163.442)"/>
      <path id="路径_9385" data-name="路径 9385" class="cls-2" d="M380.6,225.28m.323,0h6.385a.286.286,0,0,1,.323.323v1.7a.286.286,0,0,1-.323.323h-6.385a.286.286,0,0,1-.323-.323v-1.7A.286.286,0,0,1,380.923,225.28Z" transform="translate(-138.606 0)"/>
      <path id="路径_9386" data-name="路径 9386" class="cls-2" d="M293.233,334.684m.306,0H304q.306,0,.306.323v.335q0,.323-.306.323H293.539q-.306,0-.306-.323v-.335Q293.233,334.684,293.539,334.684Z" transform="translate(-53.259 -106.477)"/>
    </g>
  </g>
</svg>
