<?xml version="1.0" standalone="no"?><!DOCTYPE svg PUBLIC "-//W3C//DTD SVG 1.1//EN" "http://www.w3.org/Graphics/SVG/1.1/DTD/svg11.dtd"><svg t="1614316294910" class="icon" viewBox="0 0 1024 1024" version="1.1" xmlns="http://www.w3.org/2000/svg" p-id="5592" xmlns:xlink="http://www.w3.org/1999/xlink" width="128" height="128"><defs><style type="text/css"></style></defs><path d="M511.339534 0l56.928624 66.196074 18.444633 21.694258c5.385953 6.378894 11.102887 13.38966 17.210979 21.062387l12.757789 16.187949q56.02595 69.204986 106.786302 142.652539 39.928268 56.898534 75.222811 116.926337c70.408551 121.048547 89.485056 171.688543 89.093897 268.786148a376.2645 376.2645 0 0 1-752.228108 8.21433c-0.962852-97.879921 22.235863-163.594569 88.492114-277.511993q35.204275-59.937536 75.222811-116.896248 67.33946-96.736535 143.224232-187.003908z m0 142.923341l-6.017824 7.251479-27.080212 33.098036q-53.769265 66.918213-102.874716 137.44712-37.761851 53.799354-71.100601 110.547443c-58.583525 100.708299-76.576821 151.709365-75.854683 229.489751a283.319195 283.319195 0 0 0 566.217142-7.702815c0.300891-71.251046-11.764848-108.320848-64.450904-200.574103l-12.03565-20.641139q-33.33875-56.717999-71.160779-110.607622-49.015184-70.79971-103.145518-137.808189l-10.591372-13.479928q-4.754082-6.017825-9.598431-12.035649l-12.486986-15.044563z m6.19836 444.62699c94.239137 52.475433 191.246474-45.133687 191.246474 61.201279a195.218239 195.218239 0 0 1-390.376299 0c0-120.627299 104.980955-141.810043 199.190003-61.231368z" fill="#2887F0" p-id="5593"></path></svg>