<?xml version="1.0" standalone="no"?><!DOCTYPE svg PUBLIC "-//W3C//DTD SVG 1.1//EN" "http://www.w3.org/Graphics/SVG/1.1/DTD/svg11.dtd"><svg t="1618391706402" class="icon" viewBox="0 0 1024 1024" version="1.1" xmlns="http://www.w3.org/2000/svg" p-id="4416" xmlns:xlink="http://www.w3.org/1999/xlink" width="48" height="48"><defs><style type="text/css"></style></defs><path d="M955.71648 960h-204.8a68.8 68.8 0 0 1-68.288-69.312v-137.024a68.8 68.8 0 0 1 68.288-69.568H819.20448v-137.6H204.80448v137.6h68.288a68.8 68.8 0 0 1 68.288 69.312v137.088a68.8 68.8 0 0 1-68.288 69.312h-204.8A68.8 68.8 0 0 1 0.00448 890.496v-136.832a68.8 68.8 0 0 1 68.224-69.568h68.288V512.064a34.176 34.176 0 0 1 33.92-34.432h307.2V339.648H409.60448a68.8 68.8 0 0 1-68.288-69.312v-136.96A68.8 68.8 0 0 1 409.60448 64.064h204.8a68.8 68.8 0 0 1 68.288 69.312v137.024A68.8 68.8 0 0 1 614.40448 339.712H546.11648v137.92h307.2a34.176 34.176 0 0 1 33.92 34.432v172.032h68.288a68.8 68.8 0 0 1 68.288 69.312v137.088A68.8 68.8 0 0 1 955.71648 960z" fill="#14E1FA" p-id="4418"></path></svg>