<?xml version="1.0" standalone="no"?><!DOCTYPE svg PUBLIC "-//W3C//DTD SVG 1.1//EN" "http://www.w3.org/Graphics/SVG/1.1/DTD/svg11.dtd"><svg t="1618383859601" class="icon" viewBox="0 0 1024 1024" version="1.1" xmlns="http://www.w3.org/2000/svg" p-id="3960" xmlns:xlink="http://www.w3.org/1999/xlink" width="48" height="48"><defs><style type="text/css"></style></defs><path d="M1023.089819 879.585847V209.342935a68.847864 68.847864 0 0 0-75.310349-74.414559H552.288163a68.016059 68.016059 0 0 1-39.478747-12.157151s-17.915801-29.880997-51.188003-77.421854c-29.689042-53.683418-69.167789-44.789502-69.167789-44.789502H93.259748A86.69968 86.69968 0 0 0 0.033598 87.003609v785.991783c0 98.21698 75.310349 86.57171 75.310349 86.571709h881.649363c78.381629 0.51188 66.096509-79.981254 66.096509-79.981254zM244.904206 709.513708a56.690713 56.690713 0 1 1 0-113.381427 56.690713 56.690713 0 1 1 0 113.381427z m0-211.598407a55.091088 55.091088 0 0 1-57.586503-56.690713 57.586503 57.586503 0 1 1 57.586503 56.690713z m560.444646 208.527127H443.705612a53.683418 53.683418 0 1 1 0-107.302851h361.707225a53.683418 53.683418 0 1 1 0 107.302851z m0-211.150512H443.705612a53.683418 53.683418 0 1 1 0-107.302851h361.707225a53.683418 53.683418 0 1 1 0 107.302851z" fill="#14E1FA" p-id="3961"></path></svg>