<?xml version="1.0" standalone="no"?><!DOCTYPE svg PUBLIC "-//W3C//DTD SVG 1.1//EN" "http://www.w3.org/Graphics/SVG/1.1/DTD/svg11.dtd"><svg t="1666003658410" class="icon" viewBox="0 0 1024 1024" version="1.1" xmlns="http://www.w3.org/2000/svg" p-id="1852" xmlns:xlink="http://www.w3.org/1999/xlink" width="200" height="200"><path d="M784.168421 417.684211c2.694737 0 2.694737-2.694737 0 0 2.694737-2.694737 2.694737-5.389474 2.694737-5.389474v-2.694737-2.694737c0-2.694737 0-2.694737-2.694737-2.694737v-2.694737l-2.694737-2.694736-2.694737-2.694737h-2.694736s-2.694737 0-2.694737-2.694737h-2.694737-2.694737l-191.326316 24.252632 64.673684-355.705264v-5.389473s0-2.694737-2.694736-2.694737c0 0 0-2.694737-2.694737-2.694737 0-2.694737-2.694737-2.694737-5.389474-5.389474h-2.694737c-5.389474-2.694737-8.084211-2.694737-13.473684-2.694737-2.694737 0-5.389474 2.694737-5.389474 2.694737l-5.389473 5.389474L239.831579 603.621053v2.694736s0 2.694737-2.694737 2.694737V617.094737s0 2.694737 2.694737 2.694737c0 0 0 2.694737 2.694737 2.694737l2.694737 2.694736h13.473684l191.326316-24.252631-64.673685 358.4v10.778947s0 2.694737 2.694737 2.694737c0 2.694737 2.694737 2.694737 5.389474 5.389474 2.694737 0 5.389474 2.694737 5.389474 2.694737h2.694736c2.694737 0 5.389474 0 8.084211-2.694737h2.694737c2.694737 0 2.694737-2.694737 5.389474-5.389474l366.48421-555.115789z m-293.726316 169.768421v-2.694737-2.694737s0-2.694737-2.694737-2.694737l-2.694736-2.694737-2.694737-2.694737s-2.694737 0-2.694737-2.694736c0 0-2.694737 0-2.694737-2.694737h-2.694737-2.694737L296.421053 592.842105 584.757895 142.821053l-51.2 291.031579V441.936842s0 2.694737 2.694737 2.694737c0 0 0 2.694737 2.694736 2.694737l2.694737 2.694737s2.694737 0 2.694737 2.694736c0 0 2.694737 0 2.694737 2.694737H555.115789l177.852632-24.252631-293.726316 450.021052 51.2-291.031579v-2.694736z" p-id="1853"></path><path d="M312.589474 854.231579C191.326316 784.168421 115.873684 652.126316 115.873684 512c0-202.105263 150.905263-371.873684 353.010527-393.431579 10.778947 0 18.863158-10.778947 16.168421-21.557895 0-10.778947-8.084211-16.168421-18.863158-16.168421-220.968421 24.252632-388.042105 210.189474-388.042106 431.157895 0 153.6 83.536842 296.421053 215.578948 374.568421 2.694737 2.694737 5.389474 2.694737 10.778947 2.694737s13.473684-2.694737 16.168421-8.084211c5.389474-10.778947 2.694737-21.557895-8.08421-26.947368zM719.494737 132.042105c-8.084211-5.389474-21.557895-2.694737-26.947369 8.084211-5.389474 8.084211-2.694737 21.557895 8.084211 24.252631 126.652632 70.063158 207.494737 202.105263 207.494737 347.621053 0 191.326316-137.431579 355.705263-323.368421 388.042105-10.778947 2.694737-16.168421 10.778947-16.168421 21.557895 2.694737 8.084211 10.778947 16.168421 18.863158 16.168421h2.694736c204.8-37.726316 355.705263-215.578947 355.705264-425.768421 0-158.989474-86.231579-304.505263-226.357895-379.957895z" p-id="1854"></path></svg>