<?xml version="1.0" standalone="no"?><!DOCTYPE svg PUBLIC "-//W3C//DTD SVG 1.1//EN" "http://www.w3.org/Graphics/SVG/1.1/DTD/svg11.dtd"><svg t="1666003376554" class="icon" viewBox="0 0 1024 1024" version="1.1" xmlns="http://www.w3.org/2000/svg" p-id="1969" xmlns:xlink="http://www.w3.org/1999/xlink" width="200" height="200"><path d="M515.561739 25.6a489.73913 489.73913 0 0 0-489.73913 489.73913 489.73913 489.73913 0 0 0 489.73913 489.739131 489.73913 489.73913 0 0 0 489.739131-489.739131 489.73913 489.73913 0 0 0-489.739131-489.73913z m456.347826 489.73913a456.347826 456.347826 0 0 1-456.347826 456.347827 456.347826 456.347826 0 0 1-456.347826-456.347827 456.347826 456.347826 0 0 1 456.347826-456.347826 456.347826 456.347826 0 0 1 456.347826 456.347826z" p-id="1970"></path><path d="M518.678261 92.382609a422.956522 422.956522 0 0 0-422.956522 422.956521 422.956522 422.956522 0 1 0 845.913044 0 422.956522 422.956522 0 0 0-422.956522-422.956521z m-26.490435 180.758261a14.692174 14.692174 0 0 1 15.805217-14.246957h14.469566a14.692174 14.692174 0 0 1 15.805217 14.246957v220.16a15.805217 15.805217 0 0 1-15.805217 15.805217h-14.469566a16.027826 16.027826 0 0 1-15.805217-15.805217z m102.177391 486.177391a246.427826 246.427826 0 0 1-311.652174-150.928696 239.749565 239.749565 0 0 1 152.486957-304.973913h2.893913A6.678261 6.678261 0 0 1 445.217391 311.652174v31.610435c0 4.452174-1.335652 7.346087-4.229565 7.346087a193.669565 193.669565 0 0 0-111.304348 254.441739A199.012174 199.012174 0 0 0 588.577391 712.347826a195.450435 195.450435 0 0 0 111.304348-254.441739 203.241739 203.241739 0 0 0-111.304348-109.30087c-2.893913 0-4.229565-2.893913-4.229565-7.346087v-32.055652a8.013913 8.013913 0 0 1 10.017391-5.787826 241.975652 241.975652 0 0 1 152.486957 150.928696 238.636522 238.636522 0 0 1-152.486957 304.973913z" p-id="1971"></path></svg>