<?xml version="1.0" standalone="no"?><!DOCTYPE svg PUBLIC "-//W3C//DTD SVG 1.1//EN" "http://www.w3.org/Graphics/SVG/1.1/DTD/svg11.dtd"><svg t="1618384354099" class="icon" viewBox="0 0 1024 1024" version="1.1" xmlns="http://www.w3.org/2000/svg" p-id="4242" xmlns:xlink="http://www.w3.org/1999/xlink" width="48" height="48"><defs><style type="text/css"></style></defs><path d="M611.712 2.56l119.744 37.12a58.496 58.496 0 0 1 40.32 61.568l-12.8 130.048 108.8 33.856a29.248 29.248 0 0 1 19.2 36.352 28.544 28.544 0 0 1-35.712 19.2l-97.6-30.4-17.536 177.728 174.336 54.208a28.416 28.416 0 0 1 16.896 14.08 29.312 29.312 0 0 1 2.048 22.208 28.8 28.8 0 0 1-35.712 19.2l-164.224-50.24-13.824 171.584a129.28 129.28 0 0 1 116.032 121.28h123.456a59.584 59.584 0 0 1 51.2 17.344 62.016 62.016 0 0 1 17.664 44.8l-0.64 7.168a61.888 61.888 0 0 1-17.024 52.16 59.584 59.584 0 0 1-51.2 17.408H68.8a59.584 59.584 0 0 1-51.2-17.408 62.144 62.144 0 0 1-17.6-44.8l0.512-7.168a62.08 62.08 0 0 1 17.216-52.416 59.776 59.776 0 0 1 51.2-17.408h52.416l224-412.224-163.84-50.368a29.44 29.44 0 0 1-16.32-35.648 28.8 28.8 0 0 1 33.088-20.288l174.4 54.208 83.2-157.376-97.664-30.336a29.44 29.44 0 0 1-16.448-35.648 28.8 28.8 0 0 1 33.152-20.288l108.8 33.728 60.8-115.072a56.832 56.832 0 0 1 67.2-28.16zM478.784 662.272l-246.272 158.016h323.712q-3.52-6.4-6.784-13.312l-70.4-144.704z m233.216 83.2l-5.504 67.52a126.4 126.4 0 0 1-1.472 7.424h81.152a89.6 89.6 0 0 0-74.24-74.944z m-42.624-192.96L528.576 633.6l86.976 179.52h32l21.76-260.736z m-288-89.6l-144.064 272.128L453.12 610.176 381.248 463.04z m50.56-27.968l71.168 146.496 139.584-80.704-211.2-65.472zM512.512 215.68l-83.2 157.312 250.496 77.76 17.408-177.664-184.704-57.408z m83.2-157.248l-55.68 104.896 162.688 50.432 11.648-118.4L595.712 58.432z" fill="#14E1FA" p-id="4244"></path></svg>