<?xml version="1.0" standalone="no"?><!DOCTYPE svg PUBLIC "-//W3C//DTD SVG 1.1//EN" "http://www.w3.org/Graphics/SVG/1.1/DTD/svg11.dtd"><svg t="1618391058756" class="icon" viewBox="0 0 1024 1024" version="1.1" xmlns="http://www.w3.org/2000/svg" p-id="3989" xmlns:xlink="http://www.w3.org/1999/xlink" width="48" height="48"><defs><style type="text/css"></style></defs><path d="M128.023919 947.140852h767.951523a38.397576 38.397576 0 0 1 3.711765 76.795152H128.023919a38.397576 38.397576 0 0 1-3.711766-76.795152H128.023919zM511.99968 217.586905a268.783033 268.783033 0 0 1 268.783033 268.783033v371.176569a38.397576 38.397576 0 0 1-38.397576 38.397577H281.614223a38.397576 38.397576 0 0 1-38.397576-38.397577V486.369938A268.783033 268.783033 0 0 1 511.99968 217.586905z m-33.725871 186.420232l-76.795152 140.791113A38.397576 38.397576 0 0 0 435.204528 601.562666h88.890389l-45.821108 84.026696a38.397576 38.397576 0 0 0 67.451742 36.733681l76.795152-140.791112A38.397576 38.397576 0 0 0 588.794832 524.767514H499.904444l45.821107-84.026696a38.397576 38.397576 0 0 0-67.451742-36.733681zM179.220687 345.578825a38.397576 38.397576 0 0 1 3.711765 76.795153H102.425534a38.397576 38.397576 0 0 1-3.711765-76.795153H102.425534z m742.353139 0a38.397576 38.397576 0 0 1 3.711765 76.795153H844.778673a38.397576 38.397576 0 0 1-3.711765-76.795153h3.711765zM280.206312 111.033631l2.943814 2.623834 51.196768 51.196769a38.397576 38.397576 0 0 1-51.196768 56.956404l-2.943814-2.623834-51.196768-51.196768a38.397576 38.397576 0 0 1 51.196768-56.956405z m514.911496 2.623834a38.397576 38.397576 0 0 1 0 54.332571l-51.196768 51.196768a38.397576 38.397576 0 0 1-54.33257-54.33257l51.196768-51.196769a38.397576 38.397576 0 0 1 54.33257 0zM511.935684 0.00064a38.397576 38.397576 0 0 1 38.397576 34.68581V115.193368a38.397576 38.397576 0 0 1-76.795152 3.711766V38.398216A38.397576 38.397576 0 0 1 511.99968 0.00064z" fill="#14E1FA" p-id="3991"></path></svg>