<?xml version="1.0" standalone="no"?><!DOCTYPE svg PUBLIC "-//W3C//DTD SVG 1.1//EN" "http://www.w3.org/Graphics/SVG/1.1/DTD/svg11.dtd"><svg t="1618385106673" class="icon" viewBox="0 0 1024 1024" version="1.1" xmlns="http://www.w3.org/2000/svg" p-id="4664" xmlns:xlink="http://www.w3.org/1999/xlink" width="48" height="48"><defs><style type="text/css"></style></defs><path d="M960.242197 927.934181c-6.015914 0-6.015914 0-12.799816-5.823916a172.349522 172.349522 0 0 0-106.49447-35.903484 175.677475 175.677475 0 0 0-106.494469 35.903484 89.598712 89.598712 0 0 1-119.166287 0 172.349522 172.349522 0 0 0-106.494469-35.903484 176.829458 176.829458 0 0 0-106.494469 35.903484 85.118776 85.118776 0 0 1-119.166287 0 172.349522 172.349522 0 0 0-106.494469-35.903484 176.829458 176.829458 0 0 0-106.494469 35.903484 5.823916 5.823916 0 0 0-6.015914 5.823916l37.311464 65.983051c6.015914 0 6.015914-5.823916 12.799816-5.823916a89.598712 89.598712 0 0 1 119.166287 0A285.051902 285.051902 0 0 0 358.586845 1023.9968a176.893457 176.893457 0 0 0 106.494469-35.903484 89.598712 89.598712 0 0 1 119.166287 0 172.349522 172.349522 0 0 0 106.49447 35.903484 176.893457 176.893457 0 0 0 106.494469-35.903484 89.598712 89.598712 0 0 1 119.166287 0c6.015914 5.823916 12.799816 5.823916 18.687731 12.159825z" fill="#14E1FA" p-id="4666"></path><path d="M960.242197 796.480071c-6.015914 0-6.015914 0-12.799816-5.823917a172.349522 172.349522 0 0 0-106.49447-35.903484 175.677475 175.677475 0 0 0-106.494469 35.903484 89.598712 89.598712 0 0 1-119.166287 0 172.349522 172.349522 0 0 0-106.494469-35.903484 176.893457 176.893457 0 0 0-106.494469 35.903484 89.598712 89.598712 0 0 1-119.166287 0 172.349522 172.349522 0 0 0-106.494469-35.903484 176.893457 176.893457 0 0 0-106.494469 35.903484 5.823916 5.823916 0 0 0-6.015914 5.823917l37.311464 65.983051c6.015914 0 6.015914-5.823916 12.799816-5.823916a89.598712 89.598712 0 0 1 119.166287 0 172.349522 172.349522 0 0 0 106.046475 35.903484 175.677475 175.677475 0 0 0 106.49447-35.903484 89.598712 89.598712 0 0 1 119.166287 0 172.349522 172.349522 0 0 0 106.494469 35.903484 175.677475 175.677475 0 0 0 106.494469-35.903484 89.598712 89.598712 0 0 1 119.166287 0c6.015914 5.823916 12.799816 5.823916 18.687731 12.159825z m-447.993561-623.863032a217.980867 217.980867 0 0 0-222.076807 213.948924v295.035759a31.29555 31.29555 0 0 0 31.99954 30.59156h380.986523a31.29555 31.29555 0 0 0 31.99954-30.59156V386.565963A218.300862 218.300862 0 0 0 512.824628 172.809036z m91.13469 289.275841l-63.99908 111.870392a31.99954 31.99954 0 0 1-42.815384 12.159825 29.759572 29.759572 0 0 1-12.799816-41.151408l37.887455-67.007037h-73.598942a31.423548 31.423548 0 0 1-15.359779-3.711947 29.759572 29.759572 0 0 1-12.799816-41.151408l63.99908-111.870392a31.99954 31.99954 0 0 1 42.815385-12.159825 29.759572 29.759572 0 0 1 12.799816 41.151408l-37.887456 67.007037h73.534943a31.423548 31.423548 0 0 1 15.359779 3.711947 29.311579 29.311579 0 0 1 12.799816 41.151408zM237.180591 274.503574a30.719558 30.719558 0 0 1 3.263953 61.24712H173.821501a30.719558 30.719558 0 0 1-3.263953-61.24712z m613.815176 0a30.719558 30.719558 0 0 1 3.263953 61.24712h-66.81504a30.719558 30.719558 0 0 1-3.263953-61.24712zM320.635391 88.202252l2.175969 2.11197 42.303391 40.639416a29.88757 29.88757 0 0 1 0.575992 43.263378 32.959526 32.959526 0 0 1-42.815384 2.111969l-2.175969-2.111969-42.303392-40.639416a29.88757 29.88757 0 0 1-0.575992-43.263378 32.319535 32.319535 0 0 1 43.13538-2.175969z m425.465884 2.11197a29.439577 29.439577 0 0 1 0 43.263378l-42.303392 40.639416a32.383534 32.383534 0 0 1-44.799356 0 29.439577 29.439577 0 0 1 0-43.263378l42.303392-40.639416a32.383534 32.383534 0 0 1 45.119351-0.063999zM512.248636 0.01152a31.99954 31.99954 0 0 1 31.99954 27.455605V92.170195a31.29555 31.29555 0 0 1-31.99954 30.59156 31.99954 31.99954 0 0 1-31.99954-27.455605V30.091087a31.167552 31.167552 0 0 1 31.99954-30.079567z" fill="#14E1FA" p-id="4667"></path></svg>