<?xml version="1.0" standalone="no"?><!DOCTYPE svg PUBLIC "-//W3C//DTD SVG 1.1//EN" "http://www.w3.org/Graphics/SVG/1.1/DTD/svg11.dtd"><svg t="1618385214161" class="icon" viewBox="0 0 1024 1024" version="1.1" xmlns="http://www.w3.org/2000/svg" p-id="4806" xmlns:xlink="http://www.w3.org/1999/xlink" width="48" height="48"><defs><style type="text/css"></style></defs><path d="M170.304534 0a113.535929 113.535929 0 0 1 113.535929 113.535929v796.927502A113.535929 113.535929 0 0 1 170.304534 1023.99936h-56.767965A113.535929 113.535929 0 0 1 0.00064 910.463431v-28.735982h116.031927l5.183997-0.384a28.479982 28.479982 0 0 0 0-55.999965l-5.119997-0.448H0.00064V711.039556h116.031927l5.183997-0.384a28.479982 28.479982 0 0 0 0-55.999965l-5.183997-0.448H0.00064V540.415662h116.031927l5.183997-0.384a28.479982 28.479982 0 0 0 0-55.999965l-5.183997-0.447999H0.00064V369.727769h116.031927l5.183997-0.384a28.479982 28.479982 0 0 0 0-55.999965l-5.183997-0.448H0.00064v-93.439941h116.031927l5.183997-0.384a28.479982 28.479982 0 0 0 0-55.999965l-5.183997-0.448H0.00064v-49.087969A113.535929 113.535929 0 0 1 113.536569 0h56.767965z m445.823721 426.687733c114.431928 47.67997 178.559888 87.679945 340.351787 56.895965 24.767985-4.735997 47.23197-9.087994 67.519958-12.799992v383.23176A170.303894 170.303894 0 0 1 864.832099 1023.99936H515.776318A170.303894 170.303894 0 0 1 345.600424 864.895459V489.855694c86.719946-62.911961 172.287892-104.191935 270.719831-63.231961z" fill="#14E1FA" p-id="4808"></path></svg>