<?xml version="1.0" standalone="no"?><!DOCTYPE svg PUBLIC "-//W3C//DTD SVG 1.1//EN" "http://www.w3.org/Graphics/SVG/1.1/DTD/svg11.dtd"><svg t="1618384883883" class="icon" viewBox="0 0 1024 1024" version="1.1" xmlns="http://www.w3.org/2000/svg" p-id="4383" xmlns:xlink="http://www.w3.org/1999/xlink" width="48" height="48"><defs><style type="text/css"></style></defs><path d="M441.603776 605.327548a22.267769 22.267769 0 0 1-9.086274-17.084754V336.002719a152.291065 152.291065 0 0 0-304.070227 0v245.137424a34.617423 34.617423 0 0 1-12.349653 26.874894 230.996111 230.996111 0 0 0-86.383587 179.165959 251.280257 251.280257 0 0 0 501.728671 0 231.188074 231.188074 0 0 0-89.582979-181.597497zM280.610364 267.343765a71.026505 71.026505 0 0 1 73.010128 68.658954v295.68782a12.797568 12.797568 0 0 0 6.398785 11.069897l12.15769 7.230626a159.137764 159.137764 0 0 1 80.176766 136.742019 172.191284 172.191284 0 0 1-343.806677 0 159.393715 159.393715 0 0 1 80.36873-136.742019l12.15769-7.230626a12.797568 12.797568 0 0 0 6.398784-11.069897V336.002719a71.026505 71.026505 0 0 1 73.010129-68.658954z m0 98.093362a35.257301 35.257301 0 0 0-35.833191 34.68141v283.146203a103.660305 103.660305 0 0 0-70.386627 115.562043 108.075466 108.075466 0 0 0 211.799758 0 103.660305 103.660305 0 0 0-69.938712-115.754007V400.118537a35.257301 35.257301 0 0 0-35.833191-34.68141z m-243.153801-69.298833h35.769204a34.681411 34.681411 0 0 1 0 69.298833H37.456563a36.089143 36.089143 0 0 1-31.993921-16.956778 33.721593 33.721593 0 0 1 0-35.321289 36.089143 36.089143 0 0 1 31.609994-17.020766z m0 103.980243h35.769204a34.681411 34.681411 0 0 1 0 69.298834H37.456563a36.089143 36.089143 0 0 1-31.993921-16.956779 33.721593 33.721593 0 0 1 0-35.321288 36.089143 36.089143 0 0 1 31.609994-17.020767zM769.413492 511.905298A255.951369 255.951369 0 1 1 1023.893141 258.833382 256.655236 256.655236 0 0 1 769.413492 511.905298zM638.68633 185.567302a16.252912 16.252912 0 0 0 13.181495-6.974675 140.26135 140.26135 0 0 1 232.531819-1.087793 15.549046 15.549046 0 0 0 21.691879 4.287186 15.357082 15.357082 0 0 0 4.287185-21.563903 171.871344 171.871344 0 0 0-284.873874 1.279757 15.613034 15.613034 0 0 0 13.181496 24.059428z m97.325508 97.005569l31.993921-74.801788 31.993921 74.801788z m132.006919 79.664864l-83.184195-192.923345-0.447915-0.831842-0.447915-0.831842a19.196353 19.196353 0 0 0-33.593617 0l-0.447915 0.831842-82.480329 193.819175a15.549046 15.549046 0 0 0 28.666553 12.029714l25.915077-60.852438h90.350833l26.171027 60.852438a15.677021 15.677021 0 0 0 20.604086 8.254432 15.101131 15.101131 0 0 0 8.510383-20.284146z" fill="#14E1FA" p-id="4384"></path></svg>