<?xml version="1.0" standalone="no"?><!DOCTYPE svg PUBLIC "-//W3C//DTD SVG 1.1//EN" "http://www.w3.org/Graphics/SVG/1.1/DTD/svg11.dtd"><svg t="1614670841878" class="icon" viewBox="0 0 1024 1024" version="1.1" xmlns="http://www.w3.org/2000/svg" p-id="5592" xmlns:xlink="http://www.w3.org/1999/xlink" width="128" height="128"><defs><style type="text/css"></style></defs><path d="M718.007981 505.083012a27.467872 27.467872 0 0 1-10.718472-20.83671V175.868699a180.07034 180.07034 0 0 0-359.826272 0v299.574164a42.87389 42.87389 0 0 1-14.491375 32.869982 285.825936 285.825936 0 0 0-102.239937 218.714007 296.944565 296.944565 0 0 0 593.717635 0 285.997432 285.997432 0 0 0-106.298666-221.94384zM527.504995 91.921621a85.319042 85.319042 0 0 1 86.433763 83.947078V537.352761a15.97767 15.97767 0 0 0 7.574387 13.490984l14.291297 8.860604a195.762184 195.762184 0 0 1 94.894211 167.17959 203.479484 203.479484 0 0 1-406.816055 0 195.990845 195.990845 0 0 1 95.065706-167.17959l14.291297-8.860604a15.949087 15.949087 0 0 0 7.574387-13.490984V175.868699a85.319042 85.319042 0 0 1 86.433763-83.947078z m-0.314409 119.903981a42.387986 42.387986 0 0 0-42.387986 42.387986v346.135209a127.135377 127.135377 0 1 0 84.775973 0V254.213588a42.387986 42.387986 0 0 0-42.387987-42.387986zM239.335286 127.106794h42.187908a42.387986 42.387986 0 0 1 0 84.718808H239.192373a42.387986 42.387986 0 1 1 0-84.718808z m0 127.106794h42.187908a42.387986 42.387986 0 0 1 0 84.718807H239.192373a42.387986 42.387986 0 1 1 0-84.718807z" fill="#14e1fa" p-id="5593"></path></svg>