<svg xmlns="http://www.w3.org/2000/svg" width="16" height="16" viewBox="0 0 16 16">
  <defs>
    <style>
      .cls-1 {
        fill: none;
      }

      .cls-2 {
        fill: #14e1fa;
      }
    </style>
  </defs>
  <g id="组_4812" data-name="组 4812" transform="translate(-913 -615)">
    <g id="组_4575" data-name="组 4575" transform="translate(913 615)">
      <rect id="矩形_65" data-name="矩形 65" class="cls-1" width="16" height="16" transform="translate(0 0)"/>
      <path id="温控" class="cls-2" d="M215.474,44.433a2.86,2.86,0,0,1,5.714,0v4.583a4.66,4.66,0,0,1,1.913,5.346,5.075,5.075,0,0,1-9.54,0,4.66,4.66,0,0,1,1.913-5.346Zm.817,5.7a3.329,3.329,0,0,0-1.368,3.819,3.625,3.625,0,0,0,6.816,0,3.329,3.329,0,0,0-1.368-3.819l-.611-.407V44.433a1.43,1.43,0,0,0-2.858,0v5.293l-.611.408Zm1.326.157V44.433h1.428v5.859a2.736,2.736,0,0,1,2.114,2.984,2.877,2.877,0,0,1-5.669,0,2.735,2.735,0,0,1,2.128-2.986Z" transform="translate(-213.331 -41.706)"/>
    </g>
    <path id="湿度" class="cls-2" d="M137.284,0l.5.578.161.19c.047.056.1.117.15.184l.112.141q.489.605.933,1.246.349.5.657,1.021a3.957,3.957,0,0,1,.778,2.348A3.287,3.287,0,0,1,134,5.78a4.238,4.238,0,0,1,.773-2.424q.308-.524.657-1.021.588-.845,1.251-1.634Zm0,1.248-.053.063-.236.288q-.47.585-.9,1.2-.33.47-.621.966a3.49,3.49,0,0,0-.663,2,2.475,2.475,0,0,0,4.946-.067,2.963,2.963,0,0,0-.563-1.752l-.1-.18q-.291-.5-.622-.966-.428-.619-.9-1.2l-.093-.118-.084-.1Zm.054,3.884c.823.458,1.671-.394,1.671.535a1.705,1.705,0,0,1-3.41,0c0-1.054.917-1.239,1.74-.535Z" transform="translate(788.428 615)"/>
  </g>
</svg>
