<?xml version="1.0" standalone="no"?><!DOCTYPE svg PUBLIC "-//W3C//DTD SVG 1.1//EN" "http://www.w3.org/Graphics/SVG/1.1/DTD/svg11.dtd"><svg t="1669889318387" class="icon" viewBox="0 0 1024 1024" version="1.1" xmlns="http://www.w3.org/2000/svg" p-id="1435" xmlns:xlink="http://www.w3.org/1999/xlink" width="200" height="200"><path d="M512 857.28a62.592 62.592 0 1 0 0-125.184 62.592 62.592 0 0 0 0 125.184zM657.472 686.72a49.728 49.728 0 0 1-31.296-12.544 170.752 170.752 0 0 0-228.416 0 46.784 46.784 0 0 1-65.664-3.136 46.784 46.784 0 0 1 3.136-65.664 263.68 263.68 0 0 1 353.536-1.6 46.784 46.784 0 0 1 3.136 65.728 46.08 46.08 0 0 1-34.432 17.216z" fill="#13ce66" p-id="1436" data-spm-anchor-id="a313x.7781069.0.i4" class=""></path><path d="M788.928 555.328a53.76 53.76 0 0 1-32.896-12.544A356.608 356.608 0 0 0 512 445.76a353.728 353.728 0 0 0-244.032 97.024c-18.816 17.216-48.512 17.216-65.728-1.536-18.752-20.352-18.752-50.112 0-67.328A447.168 447.168 0 0 1 512 352a454.4 454.4 0 0 1 309.76 121.984 45.376 45.376 0 0 1 1.536 65.728 50.24 50.24 0 0 1-34.368 15.68z" fill="#909399" p-id="1437" data-spm-anchor-id="a313x.7781069.0.i5" class="selected"></path><path d="M934.4 409.792a53.76 53.76 0 0 1-32.896-12.48A558.4 558.4 0 0 0 512 239.232a563.84 563.84 0 0 0-389.568 156.48 47.232 47.232 0 0 1-67.264 0C37.952 376.96 37.952 347.264 56.704 330.048 180.288 211.136 341.504 145.408 512 145.408c170.496 0 331.648 65.728 455.232 183.04 18.752 17.28 18.752 46.976 1.536 65.728a44.352 44.352 0 0 1-34.368 15.616z" fill="#909399" p-id="1438" data-spm-anchor-id="a313x.7781069.0.i3" class="selected"></path></svg>