<?xml version="1.0" standalone="no"?><!DOCTYPE svg PUBLIC "-//W3C//DTD SVG 1.1//EN" "http://www.w3.org/Graphics/SVG/1.1/DTD/svg11.dtd"><svg t="1618385527562" class="icon" viewBox="0 0 1024 1024" version="1.1" xmlns="http://www.w3.org/2000/svg" p-id="5089" xmlns:xlink="http://www.w3.org/1999/xlink" width="48" height="48"><defs><style type="text/css"></style></defs><path d="M437.99296 128a169.728 169.728 0 0 0-133.952 65.344c-52.16 69.184-12.8 174.784 11.712 229.248s155.2 268.288 160 272.96 10.496 2.752 10.816-1.536a3860.352 3860.352 0 0 0 3.2-386.176A874.624 874.624 0 0 0 437.92896 128zM155.43296 270.464a222.72 222.72 0 0 0-82.432 136.768c-6.08 67.072 21.888 111.744 100.032 165.184a1487.808 1487.808 0 0 0 268.8 153.6 1737.024 1737.024 0 0 0-134.4-248 1123.072 1123.072 0 0 0-152.064-207.36z m25.152 619.136c56.576 25.984 144.704-32.384 169.088-49.28l64.576-50.496-320.576 8.832A207.872 207.872 0 0 0 180.58496 889.6z m8.064-265.856c-57.6-29.504-175.424-97.216-180.032-96a196.736 196.736 0 0 0 14.528 148.992 200.384 200.384 0 0 0 141.76 88.064 2084.16 2084.16 0 0 0 253.696-1.472c-1.28-3.904-172.8-110.272-230.016-139.712z m531.84-430.208A169.664 169.664 0 0 0 586.60096 128a872.576 872.576 0 0 0-51.84 179.84 3857.984 3857.984 0 0 0 3.2 386.176c0 4.224 6.016 6.4 10.752 1.536s135.232-218.496 160-272.96 64-160 11.712-229.248z m295.424 334.144c-4.608-1.28-122.624 66.432-180.032 96s-228.672 135.68-229.952 139.584a2086.4 2086.4 0 0 0 253.696 1.536 200.448 200.448 0 0 0 141.76-88.064 196.672 196.672 0 0 0 14.528-148.992z m-341.056 312.448c24.384 16.96 112.576 75.264 169.088 49.28a207.872 207.872 0 0 0 86.912-90.944l-320.512-8.832 64.512 50.496z m276.736-432.896a223.232 223.232 0 0 0-82.432-136.768 1120.896 1120.896 0 0 0-152.128 207.36 1739.904 1739.904 0 0 0-134.4 248.064 1485.952 1485.952 0 0 0 268.8-153.6c78.208-53.248 106.24-97.92 100.16-165.056z" fill="#14E1FA" p-id="5091"></path></svg>