<svg xmlns="http://www.w3.org/2000/svg" width="16" height="16" viewBox="0 0 16 16">
  <defs>
    <style>
      .cls-1 {
        fill: none;
      }

      .cls-2 {
        fill: #14e1fa;
      }
    </style>
  </defs>
  <g id="无线温度传感器" transform="translate(-15 -159)">
    <rect id="矩形_65" data-name="矩形 65" class="cls-1" width="16" height="16" transform="translate(15 159)"/>
    <path id="温控" class="cls-2" d="M215.474,44.433a2.86,2.86,0,0,1,5.714,0v4.583a4.66,4.66,0,0,1,1.913,5.346,5.075,5.075,0,0,1-9.54,0,4.66,4.66,0,0,1,1.913-5.346Zm.817,5.7a3.329,3.329,0,0,0-1.368,3.819,3.625,3.625,0,0,0,6.816,0,3.329,3.329,0,0,0-1.368-3.819l-.611-.407V44.433a1.43,1.43,0,0,0-2.858,0v5.293l-.611.408Zm1.326.157V44.433h1.428v5.859a2.736,2.736,0,0,1,2.114,2.984,2.877,2.877,0,0,1-5.669,0,2.735,2.735,0,0,1,2.128-2.986Z" transform="translate(-198.33 117.294)"/>
    <g id="无线_1_" data-name="无线 (1)" transform="translate(25 159)">
      <path id="路径_9380" data-name="路径 9380" class="cls-2" d="M0,0V.96A5.039,5.039,0,0,1,5.04,6H6A6,6,0,0,0,0,0Z"/>
      <path id="路径_9381" data-name="路径 9381" class="cls-2" d="M0,327.68v.96a3.121,3.121,0,0,1,3.12,3.12h.96A4.08,4.08,0,0,0,0,327.68Z" transform="translate(0 -325.76)"/>
      <path id="路径_9382" data-name="路径 9382" class="cls-2" d="M0,655.36v2.16H2.16A2.159,2.159,0,0,0,0,655.36Z" transform="translate(0 -651.52)"/>
    </g>
  </g>
</svg>
