<?xml version="1.0" standalone="no"?><!DOCTYPE svg PUBLIC "-//W3C//DTD SVG 1.1//EN" "http://www.w3.org/Graphics/SVG/1.1/DTD/svg11.dtd"><svg t="1589883072854" class="icon" viewBox="0 0 1024 1024" version="1.1" xmlns="http://www.w3.org/2000/svg" p-id="1716" xmlns:xlink="http://www.w3.org/1999/xlink" width="200" height="200"><defs><style type="text/css"></style></defs><path d="M14.336 186.848h995.36v650.304H14.336z" fill="#E60012" p-id="1717"></path><path d="M223.776 304.32l18.048 55.872 58.688-0.096-47.552 34.4 18.24 55.808-47.424-34.592-47.424 34.592 18.24-55.808-47.552-34.4 58.72 0.096zM413.28 413.44l5.504 17.088 17.952-0.032-14.56 10.528 5.6 17.056-14.496-10.592-14.528 10.592 5.6-17.056-14.56-10.528 17.952 0.032z m-7.776-79.936l10.528 14.528 17.056-5.568-10.56 14.496 10.56 14.496-17.056-5.568-10.528 14.528 0.032-17.952-17.088-5.504 17.088-5.504z m-67.328-44.64l17.248 4.992 10.016-14.912 0.576 17.952 17.28 4.928-16.896 6.112 0.672 17.92-11.04-14.176-16.832 6.176 10.048-14.848z m28.16 179.808l-0.032 17.952 17.088 5.536-17.088 5.504 0.032 17.952-10.528-14.56-17.056 5.6 10.56-14.496-10.56-14.528 17.056 5.6z" fill="#FFF100" p-id="1718"></path></svg>